<svg xmlns="http://www.w3.org/2000/svg" version="1.1" xmlns:xlink="http://www.w3.org/1999/xlink" xmlns:svgjs="http://svgjs.com/svgjs" width="512" height="512" x="0" y="0" viewBox="0 0 24 24" style="enable-background:new 0 0 512 512" xml:space="preserve" class=""><g><link type="text/css" rel="stylesheet" id="dark-mode-custom-link"></link><link type="text/css" rel="stylesheet" id="dark-mode-general-link"></link><style lang="en" type="text/css" id="dark-mode-custom-style"></style><style lang="en" type="text/css" id="dark-mode-native-style"></style><style lang="en" type="text/css" id="dark-mode-native-sheet"></style><g xmlns="http://www.w3.org/2000/svg" transform="translate(-216.731 -90.903)"><path d="m227.731 92.903h-5c-2.209 0-4 1.791-4 4v12c0 2.209 1.791 4 4 4h12c2.209 0 4-1.791 4-4 0-2.271 0-5 0-5 0-.552-.448-1-1-1s-1 .448-1 1v5c0 1.104-.896 2-2 2-3.33 0-8.671 0-12 0-1.105 0-2-.896-2-2 0-3.33 0-8.671 0-12 0-1.105.895-2 2-2h5c.552 0 1-.448 1-1s-.448-1-1-1zm7.586 2h-3.586c-.552 0-1-.448-1-1s.448-1 1-1h6c.552 0 1 .448 1 1v6c0 .552-.448 1-1 1s-1-.448-1-1v-3.586l-7.293 7.293c-.39.39-1.024.39-1.414 0-.391-.39-.391-1.024 0-1.414z" fill="#000000" data-original="#000000" class=""></path></g></g></svg>